<svg xmlns="http://www.w3.org/2000/svg" width="18.12" height="15.57" viewBox="0 0 18.12 15.57">
  <metadata><?xpacket begin="﻿" id="W5M0MpCehiHzreSzNTczkc9d"?>
<x:xmpmeta xmlns:x="adobe:ns:meta/" x:xmptk="Adobe XMP Core 5.6-c138 79.159824, 2016/09/14-01:09:01        ">
   <rdf:RDF xmlns:rdf="http://www.w3.org/1999/02/22-rdf-syntax-ns#">
      <rdf:Description rdf:about=""/>
   </rdf:RDF>
</x:xmpmeta>
                                                                                                    
                                                                                                    
                                                                                                    
                                                                                                    
                                                                                                    
                                                                                                    
                                                                                                    
                                                                                                    
                                                                                                    
                                                                                                    
                                                                                                    
                                                                                                    
                                                                                                    
                                                                                                    
                                                                                                    
                                                                                                    
                                                                                                    
                                                                                                    
                                                                                                    
                                                                                                    
                           
<?xpacket end="w"?></metadata>
<defs>
    <style>
      .cls-1 {
        fill: #a4afbd;
        fill-rule: evenodd;
      }
    </style>
  </defs>
  <path class="cls-1" d="M1081.25,5595.91a1.808,1.808,0,0,0-1.66,1.11h-0.51v-2.47a1.174,1.174,0,0,0-1.17-1.18h-5.54v-0.76a1.8,1.8,0,1,0-1.38,0v0.76h-0.9a1.174,1.174,0,0,0-1.17,1.18v2.47h-0.51a1.8,1.8,0,1,0,0,1.38h0.51v3.61a1.174,1.174,0,0,0,1.17,1.18h0.59v0.3a1.18,1.18,0,0,0,1.18,1.17h4.28a1.18,1.18,0,0,0,1.18-1.17v-0.3h0.59a1.174,1.174,0,0,0,1.17-1.18v-3.61h0.51A1.8,1.8,0,1,0,1081.25,5595.91Zm-10.45,1.26a1.28,1.28,0,1,1,1.28,1.28A1.285,1.285,0,0,1,1070.8,5597.17Zm4.79,4.11h-3.18a0.605,0.605,0,1,1,0-1.21h3.18A0.605,0.605,0,1,1,1075.59,5601.28Zm0.33-2.83a1.285,1.285,0,1,1,1.28-1.28A1.276,1.276,0,0,1,1075.92,5598.45Zm1.31-5.8v0.75h-1.42v-0.75A1.85,1.85,0,1,1,1077.23,5592.65Z" transform="translate(-1064.94 -5589.09)"/>
</svg>
